<svg width="600" height="600" viewBox="0 0 600 600" fill="none" xmlns="http://www.w3.org/2000/svg">
<circle cx="300" cy="300" r="300" fill="white"/>
<path d="M281.628 127.464C259.226 133.448 242.348 151.86 238.819 174.109C237.898 180.246 239.586 204.336 245.57 270.007C254.777 368.054 254.316 366.366 267.205 378.181L274.11 384.472L280.554 379.101C292.522 369.281 303.416 365.292 319.988 364.832L334.564 364.525L336.405 359.461C339.167 352.25 354.204 184.236 352.977 175.643C349.294 150.94 331.189 131.913 306.485 126.697C296.205 124.548 292.062 124.702 281.628 127.464ZM311.702 154.776C331.495 163.982 339.474 186.998 329.654 206.484C315.845 233.643 277.485 234.41 262.602 207.865C244.496 175.797 278.253 139.125 311.702 154.776ZM301.882 256.505C304.337 258.806 304.644 262.029 304.644 295.631C304.644 330.155 304.49 332.303 301.575 335.218C297.893 338.901 294.364 339.054 290.528 335.679C288.073 333.377 287.766 330.155 287.766 295.325C287.766 268.013 288.226 257.119 289.607 255.738C292.215 253.129 298.506 253.436 301.882 256.505Z" fill="#9E579D"/>
<path d="M286.999 169.966C273.343 176.257 270.274 193.442 281.014 204.029C297.739 220.754 324.898 201.114 314.617 179.786C309.861 169.966 296.972 165.516 286.999 169.966Z" fill="#9E579D"/>
<path d="M351.289 132.834C360.035 142.654 367.093 156.617 369.395 169.199C370.775 176.717 370.775 184.389 369.241 203.722C368.167 217.378 366.94 230.114 366.479 231.955L365.712 235.484H409.442C460.536 235.484 458.081 236.251 458.081 220.754V210.934H431.23C396.093 210.934 398.241 212.928 398.241 180.553C398.241 158.918 398.548 155.85 401.003 153.702C403.458 151.4 407.907 151.093 430.923 151.093H458.081V141.12C458.081 124.088 461.457 125.009 398.087 125.009H344.231L351.289 132.834Z" fill="#9E579D"/>
<path d="M415.119 181.013V194.056H436.6H458.081V181.013V167.971H436.6H415.119V181.013Z" fill="#9E579D"/>
<path d="M303.57 384.472C286.538 391.07 274.877 408.715 274.877 428.048C275.03 476.688 340.548 491.878 362.643 448.609C367.093 440.016 367.86 436.947 367.86 427.741C367.86 413.165 363.564 403.498 352.823 393.678C348.22 389.382 341.469 385.086 337.48 383.705C327.66 380.329 313.39 380.636 303.57 384.472Z" fill="#9E579D"/>
<path d="M148.751 450.603C145.069 452.291 142 457.968 142 462.572C142 464.106 143.688 467.482 145.683 469.783L149.365 474.079L213.195 474.54L277.025 475L270.12 465.487C266.284 460.27 262.755 454.439 262.295 452.445L261.374 448.762L206.597 448.916C172.381 448.916 150.746 449.529 148.751 450.603Z" fill="#9E579D"/>
</svg>
